M48
; DRILL file {KiCad (5.1.5-0-10_14)} date Wednesday, 19 February 2020 at 06:23:29 pm
; FORMAT={-:-/ absolute / metric / decimal}
; #@! TF.CreationDate,2020-02-19T18:23:29+11:00
; #@! TF.GenerationSoftware,Kicad,Pcbnew,(5.1.5-0-10_14)
; #@! TF.FileFunction,Plated,1,2,PTH
FMAT,2
METRIC
T1C0.965
T2C1.000
%
G90
G05
T1
X32.258Y-32.131
X32.258Y-34.671
X34.798Y-32.131
X34.798Y-34.671
X37.338Y-32.131
X37.338Y-34.671
X39.878Y-32.131
X39.878Y-34.671
X42.418Y-32.131
X42.418Y-34.671
X44.958Y-32.131
X44.958Y-34.671
X47.498Y-32.131
X47.498Y-34.671
X50.038Y-32.131
X50.038Y-34.671
X52.578Y-32.131
X52.578Y-34.671
X55.118Y-32.131
X55.118Y-34.671
X57.658Y-32.131
X57.658Y-34.671
X60.198Y-32.131
X60.198Y-34.671
X62.738Y-32.131
X62.738Y-34.671
X65.278Y-32.131
X65.278Y-34.671
X67.818Y-32.131
X67.818Y-34.671
X70.358Y-32.131
X70.358Y-34.671
X72.898Y-32.131
X72.898Y-34.671
X30.29Y-24.066
X30.29Y-26.607
X32.829Y-24.066
X32.829Y-26.607
X35.369Y-24.066
X35.369Y-26.607
X37.91Y-24.066
X37.91Y-26.607
X40.45Y-24.066
X40.45Y-26.607
X42.989Y-24.066
X42.989Y-26.607
X45.529Y-24.066
X45.529Y-26.607
X48.069Y-24.066
X48.069Y-26.607
X50.609Y-24.066
X50.609Y-26.607
X53.149Y-24.066
X53.149Y-26.607
X55.689Y-24.066
X55.689Y-26.607
X58.229Y-24.066
X58.229Y-26.607
X60.77Y-24.066
X60.77Y-26.607
X63.309Y-24.066
X63.309Y-26.607
X65.849Y-24.066
X65.849Y-26.607
X68.389Y-24.066
X68.389Y-26.607
X70.929Y-24.066
X70.929Y-26.607
T2
X17.462Y-33.401
X20.002Y-33.401
X22.543Y-33.401
X25.082Y-33.401
T0
M30
