G04 #@! TF.GenerationSoftware,KiCad,Pcbnew,(5.1.5-0-10_14)*
G04 #@! TF.CreationDate,2020-02-19T18:23:43+11:00*
G04 #@! TF.ProjectId,HX Internal Gotek Adpater,48582049-6e74-4657-926e-616c20476f74,rev?*
G04 #@! TF.SameCoordinates,Original*
G04 #@! TF.FileFunction,Legend,Top*
G04 #@! TF.FilePolarity,Positive*
%FSLAX46Y46*%
G04 Gerber Fmt 4.6, Leading zero omitted, Abs format (unit mm)*
G04 Created by KiCad (PCBNEW (5.1.5-0-10_14)) date 2020-02-19 18:23:43*
%MOMM*%
%LPD*%
G04 APERTURE LIST*
%ADD10C,0.150000*%
%ADD11C,0.250000*%
G04 APERTURE END LIST*
D10*
X15774309Y-36028380D02*
X16345738Y-36028380D01*
X16060023Y-37028380D02*
X16060023Y-36028380D01*
X17107642Y-37028380D02*
X17107642Y-36504571D01*
X17060023Y-36409333D01*
X16964785Y-36361714D01*
X16774309Y-36361714D01*
X16679071Y-36409333D01*
X17107642Y-36980761D02*
X17012404Y-37028380D01*
X16774309Y-37028380D01*
X16679071Y-36980761D01*
X16631452Y-36885523D01*
X16631452Y-36790285D01*
X16679071Y-36695047D01*
X16774309Y-36647428D01*
X17012404Y-36647428D01*
X17107642Y-36599809D01*
X17583833Y-36361714D02*
X17583833Y-37028380D01*
X17583833Y-36456952D02*
X17631452Y-36409333D01*
X17726690Y-36361714D01*
X17869547Y-36361714D01*
X17964785Y-36409333D01*
X18012404Y-36504571D01*
X18012404Y-37028380D01*
X18917166Y-37028380D02*
X18917166Y-36028380D01*
X18917166Y-36980761D02*
X18821928Y-37028380D01*
X18631452Y-37028380D01*
X18536214Y-36980761D01*
X18488595Y-36933142D01*
X18440976Y-36837904D01*
X18440976Y-36552190D01*
X18488595Y-36456952D01*
X18536214Y-36409333D01*
X18631452Y-36361714D01*
X18821928Y-36361714D01*
X18917166Y-36409333D01*
X19298119Y-36361714D02*
X19536214Y-37028380D01*
X19774309Y-36361714D02*
X19536214Y-37028380D01*
X19440976Y-37266476D01*
X19393357Y-37314095D01*
X19298119Y-37361714D01*
X21440976Y-37028380D02*
X20869547Y-37028380D01*
X21155261Y-37028380D02*
X21155261Y-36028380D01*
X21060023Y-36171238D01*
X20964785Y-36266476D01*
X20869547Y-36314095D01*
X22060023Y-36028380D02*
X22155261Y-36028380D01*
X22250500Y-36076000D01*
X22298119Y-36123619D01*
X22345738Y-36218857D01*
X22393357Y-36409333D01*
X22393357Y-36647428D01*
X22345738Y-36837904D01*
X22298119Y-36933142D01*
X22250500Y-36980761D01*
X22155261Y-37028380D01*
X22060023Y-37028380D01*
X21964785Y-36980761D01*
X21917166Y-36933142D01*
X21869547Y-36837904D01*
X21821928Y-36647428D01*
X21821928Y-36409333D01*
X21869547Y-36218857D01*
X21917166Y-36123619D01*
X21964785Y-36076000D01*
X22060023Y-36028380D01*
X23012404Y-36028380D02*
X23107642Y-36028380D01*
X23202880Y-36076000D01*
X23250500Y-36123619D01*
X23298119Y-36218857D01*
X23345738Y-36409333D01*
X23345738Y-36647428D01*
X23298119Y-36837904D01*
X23250500Y-36933142D01*
X23202880Y-36980761D01*
X23107642Y-37028380D01*
X23012404Y-37028380D01*
X22917166Y-36980761D01*
X22869547Y-36933142D01*
X22821928Y-36837904D01*
X22774309Y-36647428D01*
X22774309Y-36409333D01*
X22821928Y-36218857D01*
X22869547Y-36123619D01*
X22917166Y-36076000D01*
X23012404Y-36028380D01*
X23964785Y-36028380D02*
X24060023Y-36028380D01*
X24155261Y-36076000D01*
X24202880Y-36123619D01*
X24250500Y-36218857D01*
X24298119Y-36409333D01*
X24298119Y-36647428D01*
X24250500Y-36837904D01*
X24202880Y-36933142D01*
X24155261Y-36980761D01*
X24060023Y-37028380D01*
X23964785Y-37028380D01*
X23869547Y-36980761D01*
X23821928Y-36933142D01*
X23774309Y-36837904D01*
X23726690Y-36647428D01*
X23726690Y-36409333D01*
X23774309Y-36218857D01*
X23821928Y-36123619D01*
X23869547Y-36076000D01*
X23964785Y-36028380D01*
X25488595Y-37028380D02*
X25488595Y-36028380D01*
X25488595Y-36504571D02*
X26060023Y-36504571D01*
X26060023Y-37028380D02*
X26060023Y-36028380D01*
X26440976Y-36028380D02*
X27107642Y-37028380D01*
X27107642Y-36028380D02*
X26440976Y-37028380D01*
X28250500Y-37028380D02*
X28250500Y-36028380D01*
X28726690Y-36361714D02*
X28726690Y-37028380D01*
X28726690Y-36456952D02*
X28774309Y-36409333D01*
X28869547Y-36361714D01*
X29012404Y-36361714D01*
X29107642Y-36409333D01*
X29155261Y-36504571D01*
X29155261Y-37028380D01*
X29488595Y-36361714D02*
X29869547Y-36361714D01*
X29631452Y-36028380D02*
X29631452Y-36885523D01*
X29679071Y-36980761D01*
X29774309Y-37028380D01*
X29869547Y-37028380D01*
X30583833Y-36980761D02*
X30488595Y-37028380D01*
X30298119Y-37028380D01*
X30202880Y-36980761D01*
X30155261Y-36885523D01*
X30155261Y-36504571D01*
X30202880Y-36409333D01*
X30298119Y-36361714D01*
X30488595Y-36361714D01*
X30583833Y-36409333D01*
X30631452Y-36504571D01*
X30631452Y-36599809D01*
X30155261Y-36695047D01*
X31060023Y-37028380D02*
X31060023Y-36361714D01*
X31060023Y-36552190D02*
X31107642Y-36456952D01*
X31155261Y-36409333D01*
X31250499Y-36361714D01*
X31345738Y-36361714D01*
X31679071Y-36361714D02*
X31679071Y-37028380D01*
X31679071Y-36456952D02*
X31726690Y-36409333D01*
X31821928Y-36361714D01*
X31964785Y-36361714D01*
X32060023Y-36409333D01*
X32107642Y-36504571D01*
X32107642Y-37028380D01*
X33012404Y-37028380D02*
X33012404Y-36504571D01*
X32964785Y-36409333D01*
X32869547Y-36361714D01*
X32679071Y-36361714D01*
X32583833Y-36409333D01*
X33012404Y-36980761D02*
X32917166Y-37028380D01*
X32679071Y-37028380D01*
X32583833Y-36980761D01*
X32536214Y-36885523D01*
X32536214Y-36790285D01*
X32583833Y-36695047D01*
X32679071Y-36647428D01*
X32917166Y-36647428D01*
X33012404Y-36599809D01*
X33631452Y-37028380D02*
X33536214Y-36980761D01*
X33488595Y-36885523D01*
X33488595Y-36028380D01*
X35298119Y-36076000D02*
X35202880Y-36028380D01*
X35060023Y-36028380D01*
X34917166Y-36076000D01*
X34821928Y-36171238D01*
X34774309Y-36266476D01*
X34726690Y-36456952D01*
X34726690Y-36599809D01*
X34774309Y-36790285D01*
X34821928Y-36885523D01*
X34917166Y-36980761D01*
X35060023Y-37028380D01*
X35155261Y-37028380D01*
X35298119Y-36980761D01*
X35345738Y-36933142D01*
X35345738Y-36599809D01*
X35155261Y-36599809D01*
X35917166Y-37028380D02*
X35821928Y-36980761D01*
X35774309Y-36933142D01*
X35726690Y-36837904D01*
X35726690Y-36552190D01*
X35774309Y-36456952D01*
X35821928Y-36409333D01*
X35917166Y-36361714D01*
X36060023Y-36361714D01*
X36155261Y-36409333D01*
X36202880Y-36456952D01*
X36250499Y-36552190D01*
X36250499Y-36837904D01*
X36202880Y-36933142D01*
X36155261Y-36980761D01*
X36060023Y-37028380D01*
X35917166Y-37028380D01*
X36536214Y-36361714D02*
X36917166Y-36361714D01*
X36679071Y-36028380D02*
X36679071Y-36885523D01*
X36726690Y-36980761D01*
X36821928Y-37028380D01*
X36917166Y-37028380D01*
X37631452Y-36980761D02*
X37536214Y-37028380D01*
X37345738Y-37028380D01*
X37250499Y-36980761D01*
X37202880Y-36885523D01*
X37202880Y-36504571D01*
X37250499Y-36409333D01*
X37345738Y-36361714D01*
X37536214Y-36361714D01*
X37631452Y-36409333D01*
X37679071Y-36504571D01*
X37679071Y-36599809D01*
X37202880Y-36695047D01*
X38107642Y-37028380D02*
X38107642Y-36028380D01*
X38202880Y-36647428D02*
X38488595Y-37028380D01*
X38488595Y-36361714D02*
X38107642Y-36742666D01*
X39631452Y-36742666D02*
X40107642Y-36742666D01*
X39536214Y-37028380D02*
X39869547Y-36028380D01*
X40202880Y-37028380D01*
X40964785Y-37028380D02*
X40964785Y-36028380D01*
X40964785Y-36980761D02*
X40869547Y-37028380D01*
X40679071Y-37028380D01*
X40583833Y-36980761D01*
X40536214Y-36933142D01*
X40488595Y-36837904D01*
X40488595Y-36552190D01*
X40536214Y-36456952D01*
X40583833Y-36409333D01*
X40679071Y-36361714D01*
X40869547Y-36361714D01*
X40964785Y-36409333D01*
X41869547Y-37028380D02*
X41869547Y-36504571D01*
X41821928Y-36409333D01*
X41726690Y-36361714D01*
X41536214Y-36361714D01*
X41440976Y-36409333D01*
X41869547Y-36980761D02*
X41774309Y-37028380D01*
X41536214Y-37028380D01*
X41440976Y-36980761D01*
X41393357Y-36885523D01*
X41393357Y-36790285D01*
X41440976Y-36695047D01*
X41536214Y-36647428D01*
X41774309Y-36647428D01*
X41869547Y-36599809D01*
X42345738Y-36361714D02*
X42345738Y-37361714D01*
X42345738Y-36409333D02*
X42440976Y-36361714D01*
X42631452Y-36361714D01*
X42726690Y-36409333D01*
X42774309Y-36456952D01*
X42821928Y-36552190D01*
X42821928Y-36837904D01*
X42774309Y-36933142D01*
X42726690Y-36980761D01*
X42631452Y-37028380D01*
X42440976Y-37028380D01*
X42345738Y-36980761D01*
X43107642Y-36361714D02*
X43488595Y-36361714D01*
X43250499Y-36028380D02*
X43250499Y-36885523D01*
X43298119Y-36980761D01*
X43393357Y-37028380D01*
X43488595Y-37028380D01*
X44202880Y-36980761D02*
X44107642Y-37028380D01*
X43917166Y-37028380D01*
X43821928Y-36980761D01*
X43774309Y-36885523D01*
X43774309Y-36504571D01*
X43821928Y-36409333D01*
X43917166Y-36361714D01*
X44107642Y-36361714D01*
X44202880Y-36409333D01*
X44250499Y-36504571D01*
X44250499Y-36599809D01*
X43774309Y-36695047D01*
X44679071Y-37028380D02*
X44679071Y-36361714D01*
X44679071Y-36552190D02*
X44726690Y-36456952D01*
X44774309Y-36409333D01*
X44869547Y-36361714D01*
X44964785Y-36361714D01*
X45964785Y-36361714D02*
X46202880Y-37028380D01*
X46440976Y-36361714D01*
X47345738Y-37028380D02*
X46774309Y-37028380D01*
X47060023Y-37028380D02*
X47060023Y-36028380D01*
X46964785Y-36171238D01*
X46869547Y-36266476D01*
X46774309Y-36314095D01*
X47774309Y-36933142D02*
X47821928Y-36980761D01*
X47774309Y-37028380D01*
X47726690Y-36980761D01*
X47774309Y-36933142D01*
X47774309Y-37028380D01*
X48774309Y-37028380D02*
X48202880Y-37028380D01*
X48488595Y-37028380D02*
X48488595Y-36028380D01*
X48393357Y-36171238D01*
X48298119Y-36266476D01*
X48202880Y-36314095D01*
X49964785Y-37028380D02*
X49964785Y-36028380D01*
X49964785Y-36409333D02*
X50060023Y-36361714D01*
X50250499Y-36361714D01*
X50345738Y-36409333D01*
X50393357Y-36456952D01*
X50440976Y-36552190D01*
X50440976Y-36837904D01*
X50393357Y-36933142D01*
X50345738Y-36980761D01*
X50250499Y-37028380D01*
X50060023Y-37028380D01*
X49964785Y-36980761D01*
X50774309Y-36361714D02*
X51012404Y-37028380D01*
X51250499Y-36361714D02*
X51012404Y-37028380D01*
X50917166Y-37266476D01*
X50869547Y-37314095D01*
X50774309Y-37361714D01*
X52821928Y-37028380D02*
X52821928Y-36028380D01*
X52821928Y-36980761D02*
X52726690Y-37028380D01*
X52536214Y-37028380D01*
X52440976Y-36980761D01*
X52393357Y-36933142D01*
X52345738Y-36837904D01*
X52345738Y-36552190D01*
X52393357Y-36456952D01*
X52440976Y-36409333D01*
X52536214Y-36361714D01*
X52726690Y-36361714D01*
X52821928Y-36409333D01*
X53583833Y-36028380D02*
X53583833Y-36742666D01*
X53536214Y-36885523D01*
X53440976Y-36980761D01*
X53298119Y-37028380D01*
X53202880Y-37028380D01*
X54250499Y-36028380D02*
X54440976Y-36028380D01*
X54536214Y-36076000D01*
X54631452Y-36171238D01*
X54679071Y-36361714D01*
X54679071Y-36695047D01*
X54631452Y-36885523D01*
X54536214Y-36980761D01*
X54440976Y-37028380D01*
X54250499Y-37028380D01*
X54155261Y-36980761D01*
X54060023Y-36885523D01*
X54012404Y-36695047D01*
X54012404Y-36361714D01*
X54060023Y-36171238D01*
X54155261Y-36076000D01*
X54250499Y-36028380D01*
X55060023Y-36980761D02*
X55202880Y-37028380D01*
X55440976Y-37028380D01*
X55536214Y-36980761D01*
X55583833Y-36933142D01*
X55631452Y-36837904D01*
X55631452Y-36742666D01*
X55583833Y-36647428D01*
X55536214Y-36599809D01*
X55440976Y-36552190D01*
X55250499Y-36504571D01*
X55155261Y-36456952D01*
X55107642Y-36409333D01*
X55060023Y-36314095D01*
X55060023Y-36218857D01*
X55107642Y-36123619D01*
X55155261Y-36076000D01*
X55250499Y-36028380D01*
X55488595Y-36028380D01*
X55631452Y-36076000D01*
D11*
X75399500Y-24065500D02*
X76009500Y-24065500D01*
X75399500Y-26607500D02*
X75399500Y-24065500D01*
X75399500Y-26607500D02*
X76009500Y-26607500D01*
X25209500Y-24065500D02*
X25869500Y-24065500D01*
X25869500Y-26607500D02*
X25869500Y-24065500D01*
X25209500Y-26607500D02*
X25869500Y-26607500D01*
X52641500Y-20891500D02*
X76009500Y-20891500D01*
X25209500Y-20891500D02*
X48577500Y-20891500D01*
X25209500Y-29781500D02*
X25209500Y-20891500D01*
X25209500Y-29781500D02*
X76009500Y-29781500D01*
X76009500Y-29781500D02*
X76009500Y-20891500D01*
X52641500Y-21656500D02*
X52641500Y-20891500D01*
X48577500Y-21656500D02*
X52641500Y-21656500D01*
X48577500Y-21656500D02*
X48577500Y-20891500D01*
M02*
